<svg width="255" height="192" viewBox="0 0 255 192" fill="none" xmlns="http://www.w3.org/2000/svg">
<rect width="255" height="192" rx="5" fill="#E5E5E5"/>
<path d="M118.718 94.4C118.718 91.6533 119.464 89.4 120.958 87.64C122.478 85.8533 124.678 84.96 127.558 84.96C130.038 84.96 132.038 85.64 133.558 87C135.104 88.36 135.878 90.1333 135.878 92.32C135.878 93.2267 135.771 94.0533 135.558 94.8C135.344 95.52 134.931 96.2667 134.318 97.04C133.731 97.7867 133.278 98.32 132.958 98.64C132.664 98.9333 132.038 99.5333 131.078 100.44C129.958 101.507 129.251 102.44 128.958 103.24C128.691 104.013 128.558 105.253 128.558 106.96H126.158C126.158 104.72 126.398 103.12 126.878 102.16C127.358 101.2 128.464 99.8667 130.198 98.16C130.411 97.9467 130.584 97.7733 130.718 97.64C132.398 95.96 133.238 94.24 133.238 92.48C133.238 90.9067 132.704 89.6267 131.638 88.64C130.598 87.6533 129.224 87.16 127.518 87.16C125.358 87.16 123.758 87.8533 122.718 89.24C121.678 90.6267 121.158 92.3467 121.158 94.4H118.718ZM128.838 110V114H125.838V110H128.838Z" fill="#196AB3"/>
</svg>
