<svg width="90" height="96" viewBox="0 0 90 96" fill="none" xmlns="http://www.w3.org/2000/svg">
<path d="M55.9632 37.3014V2.8125H41.2471L45.0001 96H89.0135L55.9632 37.3014Z" fill="#E5E5E5"/>
<path d="M34.0368 2.8125V11.2543L35.9133 14.067L34.0368 16.8795V23.2144L35.9133 26.0269L34.0368 28.8394V37.3014L0.986572 96H44.9999V28.8394L43.1234 26.0269L44.9999 23.2144V16.8795L43.1234 14.067L44.9999 11.2545V2.8125H34.0368Z" fill="white"/>
<path d="M34.0369 11.2545H45V16.8795H34.0369V11.2545Z" fill="#E5E5E5"/>
<path d="M34.0369 23.2144H45V28.8394H34.0369V23.2144Z" fill="#E5E5E5"/>
<path d="M61.5927 0H45L43.1235 2.8125L45 5.625H61.5927V0Z" fill="#CBCBCB"/>
<path d="M28.4072 0H44.9999V5.625H28.4072V0Z" fill="#E5E5E5"/>
<path d="M65.3172 65.3792H45.0001L41.2471 77.8772L45.0001 90.375H79.391L65.3172 65.3792Z" fill="#2D9BFF"/>
<path d="M24.6828 65.3792L10.6089 90.375H44.9998V65.3792H24.6828Z" fill="#4BAAFF"/>
</svg>
