<svg width="94" height="94" viewBox="0 0 94 94" fill="none" xmlns="http://www.w3.org/2000/svg">
<path d="M13.2827 15.326V78.6738C13.2827 88.629 30.6544 94 47.0001 94C63.3458 94 80.7174 88.629 80.7174 78.674V15.326H13.2827Z" fill="white"/>
<path d="M47 94C63.3457 94 80.7174 88.629 80.7174 78.674V15.326H47V94Z" fill="#E5E5E5"/>
<path d="M68.4567 25.1347V52.1087C68.4567 57.1764 64.3289 61.3043 59.261 61.3043C54.0501 61.3043 50.0653 56.9517 50.0653 52.1087V39.8477C50.0653 38.1517 48.6963 36.7825 47.0001 36.7825C45.3038 36.7825 43.9348 38.1515 43.9348 39.8477V45.9781C43.9348 51.0459 39.807 55.1738 34.7391 55.1738C29.6712 55.1738 25.5435 51.046 25.5435 45.9781V25.1347C25.5435 23.4387 26.9125 22.0694 28.6087 22.0694H65.3914C67.0874 22.0696 68.4567 23.4387 68.4567 25.1347Z" fill="#4BAAFF"/>
<path d="M68.4566 25.1347V52.1087C68.4566 57.1764 64.3289 61.3043 59.2609 61.3043C54.05 61.3043 50.0653 56.9517 50.0653 52.1087V39.8477C50.0653 38.1517 48.6962 36.7825 47 36.7825V22.0694H65.3913C67.0874 22.0696 68.4566 23.4387 68.4566 25.1347Z" fill="#2D9BFF"/>
<path d="M47.0001 0C30.6523 0 13.2827 5.37434 13.2827 15.326C13.2827 25.2777 30.6523 30.6523 47.0001 30.6523C63.3478 30.6523 80.7174 25.2779 80.7174 15.3262C80.7174 5.37452 63.3478 0 47.0001 0Z" fill="#4BAAFF"/>
<path d="M80.7174 15.326C80.7174 25.2777 63.3477 30.6521 47 30.6521V0C63.3477 0 80.7174 5.37434 80.7174 15.326Z" fill="#2D9BFF"/>
<path d="M47.0001 6.13037C30.1618 6.13037 19.4131 11.5864 19.4131 15.326C19.4131 19.0657 30.1618 24.5217 47.0001 24.5217C63.8384 24.5217 74.587 19.0657 74.587 15.326C74.587 11.5864 63.8384 6.13037 47.0001 6.13037Z" fill="#8CC9FF"/>
<path d="M86.8478 18.3913H80.7174V24.5217H86.8478V27.587C86.8478 49.5593 68.9715 67.4347 47.0001 67.4347C25.0287 67.4347 7.15235 49.5593 7.15235 27.587V24.5217H13.2827V18.3913H7.15235C3.77184 18.3913 1.02197 21.1412 1.02197 24.5217V27.587C1.02197 52.9398 21.6482 73.5653 47.0003 73.5653C72.3524 73.5653 92.9786 52.9398 92.9786 27.587V24.5217C92.9784 21.1412 90.2285 18.3913 86.8478 18.3913Z" fill="#E5E5E5"/>
<path d="M74.587 15.326C74.587 19.0657 63.8383 24.5217 47 24.5217V6.13037C63.8383 6.13037 74.587 11.5866 74.587 15.326Z" fill="#71BCFF"/>
<path d="M92.9784 27.587V24.5217C92.9784 21.1412 90.2285 18.3913 86.848 18.3913H80.7176V24.5217H86.848V27.587C86.848 49.5593 68.9716 67.4347 47.0002 67.4347V73.5651C72.3518 73.5653 92.9784 52.9398 92.9784 27.587Z" fill="#CBCBCB"/>
</svg>
